# xmcd CD database file
#
# Track frame offsets:
#	150
#	2405
#	12946
#	28214
#	39842
#	54688
#	64946
#	79891
#	90574
#	105467
#	115527
#	130061
#	140230
#	154593
#	164120
#	178906
#	188909
#	203728
#	211792
#	226849
#	236394
#	253435
#	267091
#	279417
#	286413
#	302257
#	309786
#	321838
#	332465
#
# Disc length: 4481 seconds
#
# Revision: 0
# Processed by: cddbd v1.5.1PL0 Copyright (c) Steve Scherf et al.
# Submitted via: CDex 1.50Beta7
#
DISCID=88117f1d
DTITLE=Play-a-long - Essential Jazz Lines - John Coltrane
DYEAR=1900
DGENRE=Jazz
TTITLE0=Tunning
TTITLE1=Minor Chord Vamp
TTITLE2=Minor Moving in Fourths
TTITLE3=Dominant Seventh Vamp
TTITLE4=Sominant Seventh Moving in Fourths
TTITLE5=Short ii-V Vamp
TTITLE6=Short ii-V Moving in Fourths
TTITLE7=Long ii-V Vamp
TTITLE8=Long ii-V Moving in Fourths
TTITLE9=Major Vamp
TTITLE10=Major Moving in Fourths
TTITLE11=Minor ii-V Vamp
TTITLE12=Minor ii-V Moving in Fourths
TTITLE13=Short ii-V-I Vamp
TTITLE14=Short ii-V-I Moving in Fourths
TTITLE15=Long ii-V-I Vamp
TTITLE16=Long ii-V-I Moving in Fourths
TTITLE17=Minor ii-V-i Vamp
TTITLE18=Minor ii-V-i Moving in Fourth
TTITLE19=Turnaround Vamp
TTITLE20=Turnaround Moving in Fourths
TTITLE21=Creating Solos
TTITLE22=Progression Similar to Pent Up House
TTITLE23=Long ii-V-i with Coltrane Changes Vamp
TTITLE24=Long ii-V-i with Coltrane Changes Moving in Fourths
TTITLE25=Eight Measure Giant Steps Vamp
TTITLE26=Progression Similar to Giant Steps
TTITLE27=Blues For a Giant
TTITLE28=Snap Shots
EXTD=
EXTT0=
EXTT1=
EXTT2=
EXTT3=
EXTT4=
EXTT5=
EXTT6=
EXTT7=
EXTT8=
EXTT9=
EXTT10=
EXTT11=
EXTT12=
EXTT13=
EXTT14=
EXTT15=
EXTT16=
EXTT17=
EXTT18=
EXTT19=
EXTT20=
EXTT21=
EXTT22=
EXTT23=
EXTT24=
EXTT25=
EXTT26=
EXTT27=
EXTT28=
PLAYORDER=
